<svg xmlns="http://www.w3.org/2000/svg" width="1000" height="600" viewBox="0 0 1000 600"><g fill="none" fill-rule="evenodd" transform="translate(242 226.5)"><path fill="#C6CCD1" d="M503.506732,75.6763235 C501.79982,75.6763235 500.057615,75.6763235 498.862026,75.5285294 L514.95085,7.83686841e-14 L407.744968,7.83686841e-14 L404.422026,15.6361765 C400.595262,15.0308824 397.908056,16.6014706 397.108644,19.1002941 C396.309673,21.6 393.434526,32.2601471 393.434526,39.2558824 C393.434526,50.2482353 396.200703,54.3026471 396.200703,54.3026471 L376.527762,146.854412 L483.730115,146.854412 L496.698497,85.9535294 C511.349085,85.4594118 515.469673,80.8760294 515.469673,78.1985294 C515.469673,74.5032353 508.101585,75.6763235 503.506732,75.6763235"></path><path fill="#002C5C" d="M414.005262 119.309118L413.966438 104.510735 429.930409 115.706029 425.301585 138.545294 427.445262 142.941176 408.173791 142.941176 405.976732 138.570441 414.005262 119.309118zM474.524526 121.591327L474.524526 121.591327C476.596732 121.5825 478.00232 120.332206 478.00232 120.332206 478.228644 117.266912 477.50732 115.682206 477.50732 115.682206 475.044673 116.326324 473.012615 115.442206 472.769968 112.918676 472.418791 109.533088 480.077173 94.6989706 482.032026 89.7502941 482.80982 87.8267647 482.863644 85.0632353 482.863644 85.0632353 474.704526 83.9201471 467.622762 79.5419118 467.622762 79.5419118L468.423056 84.7517647C468.75085 87.9194118 464.626291 104.781176 465.457909 113.097353 465.457909 113.097353 466.177026 121.5975 474.524526 121.591327zM479.818203 56.0722059L479.818203 56.0722059C481.623056 59.4013235 482.257026 64.0058824 482.77982 71.0391176 476.512909 68.1767647 466.000556 59.7277941 466.000556 59.7277941 454.073791 57.3617647 449.962026 66.9260294 449.962026 66.9260294L452.654526 69.3097059C451.628791 73.9817647 448.298791 76.3592647 448.298791 76.3592647 394.975115 76.3592647 396.15085 43.0738235 396.15085 39.2620588 396.15085 32.2601471 398.904673 22.0191176 399.788791 19.7827941 400.653056 17.5469118 404.672173 18.2845588 404.672173 18.2845588L430.775703 22.0888235 436.256879 19.0914706C436.256879 19.0914706 444.284526 18.4936765 453.03482 20.9783824 453.03482 20.9783824 466.528203 32.2213235 471.707173 40.4426471L471.300409 44.6982353C471.300409 44.6982353 478.141291 53.0047059 479.818203 56.0722059zM453.809968 44.1242647L453.809968 44.1242647 447.823644 38.3466176 438.847909 46.2026471 453.809968 44.1242647zM393.33085 108.190147L393.33085 108.190147 414.370556 100.884265 443.468791 121.513676 432.190115 128.570735 448.842762 142.413529 449.066438 137.523529 454.105115 125.155588 453.711144 114.478235 443.142762 97.3111765 445.168644 89.8367647 444.479526 81.4663235C417.118203 81.5126471 405.378938 69.5497059 398.904673 59.7516176L388.873644 107.520882 393.33085 108.190147zM455.394673 67.3751471L455.394673 67.3751471C455.394673 67.3751471 474.50335 86.4975 501.209526 83.2297059 510.892468 82.0252941 513.03482 79.4880882 512.722468 78.2986765 512.42732 77.1970588 509.119379 77.6633824 505.890409 77.8023529 504.041879 77.8883824 487.940703 79.9919118 466.543203 63.7345588 458.20585 61.5445588 455.394673 67.3751471 455.394673 67.3751471L455.394673 67.3751471zM181.825302 83.6455611L181.343184 83.6563756C181.169791 83.6586916 180.995294 83.6598529 180.819673 83.6598529 164.410997 83.6598529 156.595115 72.0233824 156.595115 57.2876471 156.595115 45.8413235 160.815409 34.4845588 168.224085 27.3564706 174.144232 21.72 180.819673 18.3410294 189.940556 18.3410294 206.641732 18.3410294 213.668791 29.6060294 213.668791 44.7132353 213.668791 56.2575 209.650556 67.425 202.403791 74.5530882 199.008214 77.8485265 195.508971 80.3694001 191.339215 81.9144446 191.452526 82.5902859 191.642486 83.1096272 191.90732 83.4710294 192.425262 84.1813235 192.960409 84.4742647 193.56085 84.3617647L193.719673 84.3326471C194.883938 84.1102941 195.468056 84.5977941 195.440262 85.8061765L195.399232 89.7467647C195.371438 90.9595588 194.771438 91.665 193.600997 91.8864706L193.063203 91.9852941C191.267173 92.3316176 189.698791 92.4591176 188.444526 92.3814706 187.185409 92.2764706 186.862468 92.13 186.01982 91.6561765 185.18335 91.1960294 184.467762 90.2982353 184.034968 89.4489706 183.58232 88.62 183.044526 87.5391176 182.669526 86.3898529 182.669526 86.3898529 182.209291 84.9854294 181.883117 83.8492412L181.825302 83.6455611 181.825302 83.6455611zM188.553497 27.6851471C184.167187 27.6851471 180.257117 29.478516 177.182517 32.5225883L176.896732 32.8116176C171.476879 38.1427941 168.459232 49.4792647 168.459232 57.6167647 168.459232 67.1611765 172.771291 74.2945588 182.617026 74.2945588 186.852762 74.2945588 190.84585 72.3785294 193.972026 69.3683824 199.297026 64.0548529 202.20835 52.0980882 202.20835 44.2729412 202.20835 35.8217647 199.199526 27.6851471 188.553497 27.6851471z"></path><path fill="#003A67" d="M284.278231,101.301967 C287.737872,101.301967 290.321288,102.021898 292.012198,103.473807 C293.720691,104.912693 294.300283,107.003456 293.732739,109.715164 C293.386612,111.315553 292.737665,112.658708 291.806411,113.751466 C290.859201,114.837712 289.647269,115.711984 288.154983,116.35507 L288.154983,116.444614 C290.223279,116.77967 291.671607,117.633428 292.493129,119.040078 C293.315303,120.443146 293.514904,122.139591 293.091281,124.113133 C292.828185,125.411679 292.331625,126.612541 291.579133,127.698787 C290.847479,128.791545 289.947484,129.749825 288.881426,130.578511 C287.794855,131.400034 286.598877,132.043446 285.264188,132.501258 C283.943175,132.95614 282.556062,133.19514 281.111641,133.19514 L270.993533,133.19514 C270.363146,133.19514 270.127076,132.898181 270.248855,132.307518 L276.64325,102.189914 C276.77903,101.597298 277.132646,101.301967 277.724286,101.301967 L284.278231,101.301967 Z M162.167383,110.168747 C163.598013,110.168747 164.832544,110.41425 165.827672,110.92691 C166.833168,111.421272 167.566019,112.227011 168.204023,113.305092 C168.401951,113.648186 168.728882,114.136754 168.287891,114.551517 L167.053359,115.682358 C166.734357,115.978182 166.560827,115.820816 166.325693,115.495714 C165.45408,114.274296 164.25523,113.94401 162.372325,113.94401 C161.600133,113.94401 160.903574,114.051056 160.245747,114.274296 C159.607743,114.491132 159.006641,114.901016 158.50008,115.48443 C157.976441,116.074858 157.506782,116.863214 157.073721,117.860781 C156.634559,118.867193 156.261272,119.901967 155.93617,121.492708 L155.634552,123.557071 C155.525371,124.448203 155.509208,125.272241 155.586976,126.013021 C155.665659,126.747091 155.844373,127.391805 156.146297,127.933132 C156.460114,128.475069 156.90446,128.902337 157.514712,129.216154 C158.096601,129.516858 158.861474,129.678494 159.789202,129.678494 C160.626963,129.678494 161.462895,129.571448 162.329934,129.366506 C163.183859,129.161564 164.081395,128.914231 165.008209,128.63762 C165.471463,128.499467 165.761188,128.451891 165.863964,128.511361 C165.965215,128.565951 166.060976,128.63762 166.109467,128.721488 L166.718194,130.058795 C166.916731,130.449771 166.844148,130.823973 166.471775,131.160359 C166.224442,131.371095 165.863964,131.605619 165.332395,131.857832 C164.804182,132.105166 164.182646,132.3403 163.484868,132.526944 C162.780379,132.724261 162.003003,132.881322 161.167071,133.007581 C160.318941,133.128656 159.425979,133.19514 158.535762,133.19514 C156.574174,133.189345 155.016371,132.881322 153.846494,132.273816 C153.061086,131.856409 152.345009,131.268522 151.698263,130.510156 C151.04928,129.618719 150.64458,128.451891 150.452752,126.982225 C150.271903,125.520184 150.390537,123.696139 150.849522,121.485693 C151.294783,119.342646 151.915403,117.54178 152.69095,116.092242 C153.475037,114.646669 154.378367,113.479536 155.375935,112.607313 C156.376247,111.733565 157.463781,111.10227 158.609261,110.728983 C159.770904,110.355391 160.944136,110.168747 162.167383,110.168747 Z M308.379783,110.168747 C309.830623,110.168747 311.065849,110.419429 312.083515,110.933133 C313.088842,111.44294 313.8844,112.243694 314.47149,113.333447 L314.56371,113.333447 L315.261204,111.577373 C315.366413,111.264345 315.493053,111.050681 315.629434,110.922092 C315.769063,110.792855 315.989871,110.730509 316.302899,110.730509 L319.313034,110.737653 C319.878043,110.737653 320.102747,111.013663 319.987148,111.582569 L316.772441,126.624799 C316.571765,127.524917 316.558777,128.162013 316.730228,128.547128 C316.912719,128.920554 317.133527,129.112138 317.422526,129.112138 L317.506953,129.112138 C318.070663,129.112138 318.302512,129.39724 318.188211,129.962249 L317.806992,131.810543 C317.685548,132.381397 317.34849,132.663252 316.814654,132.663252 L316.558777,132.663252 C314.784518,132.650263 313.736978,132.34308 313.081698,131.731312 C312.420572,131.113049 312.115337,130.266185 312.144562,129.196564 L312.058187,129.196564 C310.883358,130.603242 309.598774,131.620908 308.208332,132.245015 C306.81854,132.874968 305.305354,133.19514 303.659684,133.19514 C302.453682,133.19514 301.319767,133.003556 300.309245,132.626234 C299.27989,132.237872 298.455106,131.602724 297.818659,130.702606 C297.164678,129.802488 296.760079,128.61467 296.559404,127.140451 C296.36782,125.665582 296.507449,123.821185 296.967899,121.59362 C297.408216,119.43035 298.039468,117.613878 298.822038,116.16109 C299.611751,114.692067 300.517065,113.512042 301.528236,112.634005 C302.532913,111.75402 303.622667,111.118871 304.791651,110.737653 C305.960635,110.358382 307.161442,110.168747 308.379783,110.168747 Z M205.601011,110.168747 C207.05185,110.168747 208.287077,110.419429 209.304743,110.933133 C210.310069,111.44294 211.105628,112.243694 211.692718,113.333447 L211.784938,113.333447 L212.482432,111.577373 C212.58764,111.264345 212.71428,111.050681 212.850662,110.922092 C212.99029,110.792855 213.211098,110.730509 213.524126,110.730509 L216.534261,110.737653 C217.09927,110.737653 217.323975,111.013663 217.208375,111.582569 L213.993668,126.624799 C213.792993,127.524917 213.780004,128.162013 213.951455,128.547128 C214.133947,128.920554 214.354755,129.112138 214.643754,129.112138 L214.72818,129.112138 C215.29189,129.112138 215.523739,129.39724 215.409438,129.962249 L215.02822,131.810543 C214.906775,132.381397 214.569718,132.663252 214.035882,132.663252 L213.780004,132.663252 C212.005746,132.650263 210.958206,132.34308 210.302925,131.731312 C209.6418,131.113049 209.336565,130.266185 209.365789,129.196564 L209.279415,129.196564 C208.104585,130.603242 206.820001,131.620908 205.42956,132.245015 C204.039767,132.874968 202.526582,133.19514 200.880912,133.19514 C199.67491,133.19514 198.540995,133.003556 197.530473,132.626234 C196.501117,132.237872 195.676334,131.602724 195.039887,130.702606 C194.385905,129.802488 193.981307,128.61467 193.780631,127.140451 C193.589048,125.665582 193.728676,123.821185 194.189126,121.59362 C194.629444,119.43035 195.260695,117.613878 196.043265,116.16109 C196.832979,114.692067 197.738292,113.512042 198.749464,112.634005 C199.754141,111.75402 200.843894,111.118871 202.012878,110.737653 C203.181863,110.358382 204.382669,110.168747 205.601011,110.168747 Z M181.639068,99.1951399 L178.783001,112.42158 C179.35563,111.852812 180.009971,111.358034 180.566514,110.993868 C181.596603,110.327946 182.889843,109.988872 184.414709,109.988872 C185.607579,109.988872 186.409902,110.188971 187.4001,110.564718 C188.38322,110.942396 189.200342,111.488002 189.834738,112.222768 C190.476854,112.937589 190.92595,113.851222 191.17366,114.899969 C191.401425,115.98153 191.401425,117.181477 191.120901,118.542275 L191.120901,118.542275 L189.477649,126.515971 C189.276907,127.599462 189.246024,128.365755 189.386286,128.850881 C189.57609,129.293543 189.781979,129.534819 190.081161,129.534819 L190.081161,129.534819 L190.179602,129.534819 C190.758021,129.534819 190.992864,129.811482 190.883485,130.396979 L190.883485,130.396979 L190.476854,132.312391 C190.34946,132.906895 190.011674,133.19514 189.455773,133.19514 L189.455773,133.19514 L189.200342,133.19514 C184.912703,133.19514 183.484348,131.060971 184.374818,126.813223 L184.374818,126.813223 L185.776794,120.021459 C185.952443,119.186322 186.032225,118.37306 186.061821,117.610627 C186.081767,116.846264 186.005202,116.169404 185.815398,115.572969 C185.634602,115.00034 185.308396,114.522935 184.859944,114.178071 C184.414709,113.828059 183.803476,113.660131 183.024958,113.660131 C180.566514,113.651124 178.783001,115.00034 177.710447,117.845469 L177.710447,117.845469 L177.509706,118.826659 L174.651709,132.312391 C174.535253,132.906895 174.197466,133.19514 173.633845,133.19514 L173.633845,133.19514 L170.367286,133.19514 C169.750906,133.19514 169.503196,132.88695 169.63252,132.312391 L169.63252,132.312391 L176.004786,102.171523 L181.639068,99.1951399 Z M93.7124482,101.55978 C94.3572255,101.55978 94.8727768,101.694419 94.9113416,102.262067 L94.9113416,102.262067 L95.9126747,123.629026 L95.9255297,123.629026 L105.633725,102.440006 C105.86985,101.839883 106.207461,101.55978 106.786611,101.55978 L106.786611,101.55978 L112.252672,101.55978 C112.841293,101.55978 113.01179,101.853414 112.942779,102.446095 L112.942779,102.446095 L110.398176,132.316944 C110.342696,132.901506 110.040943,133.19514 109.484797,133.19514 L109.484797,133.19514 L105.69191,133.19514 C105.079608,133.19514 104.784621,132.901506 104.84416,132.316944 L104.84416,132.316944 L106.495006,112.332906 L97.3605482,132.297323 C97.1075086,132.940071 96.8064321,133.175519 96.2597584,133.175519 L96.2597584,133.175519 L92.2456306,133.175519 C91.5704073,133.175519 91.0792129,132.99758 91.00073,132.475939 L91.00073,132.475939 L89.9520366,112.090692 L83.5326796,132.316944 C83.3412085,132.901506 82.9704446,133.19514 82.4163285,133.19514 L82.4163285,133.19514 L79.086896,133.19514 C78.4813601,133.19514 78.2567368,132.901506 78.4563268,132.316944 L78.4563268,132.316944 L87.9473407,102.440006 C88.1428712,101.845972 88.5136351,101.55978 89.1076692,101.55978 L89.1076692,101.55978 Z M126.302406,110.16225 C127.594714,110.16225 128.762747,110.346062 129.819467,110.713169 C130.868943,111.074177 131.732388,111.649044 132.397984,112.407656 C133.084165,113.167411 133.540095,114.118154 133.793982,115.258358 C134.039482,116.398563 134.005935,117.732805 133.692579,119.251172 C133.534758,120.078783 133.333859,120.742473 133.067011,121.286081 C132.803212,121.825114 132.455166,122.241016 132.016391,122.570765 C131.597058,122.900513 131.061074,123.128478 130.434361,123.26457 C129.81108,123.404094 129.061236,123.475381 128.166151,123.475381 L119.362825,123.466613 C119.249223,124.368941 119.232069,125.194646 119.315173,125.939915 C119.383029,126.685566 119.573254,127.339344 119.880129,127.882952 C120.191579,128.427704 120.643315,128.856567 121.25821,129.177548 C121.849089,129.488617 122.621805,129.646438 123.56073,129.646438 C124.398252,129.646438 125.248736,129.536268 126.117518,129.326602 C126.995068,129.120366 127.892822,128.870672 128.82336,128.593912 C129.294538,128.45782 129.578541,128.410168 129.697479,128.470781 C129.794688,128.522626 129.885416,128.593912 129.938405,128.680448 L130.557874,130.036799 C130.753436,130.426779 130.674525,130.796174 130.30818,131.137739 C130.057343,131.353887 129.679181,131.594812 129.153871,131.844506 C128.617124,132.102587 127.999942,132.330933 127.290126,132.520014 C126.578784,132.717481 125.79425,132.884071 124.947198,133.007202 C124.094808,133.128428 123.195529,133.19514 122.297775,133.19514 C120.310517,133.18561 118.731538,132.884071 117.550543,132.256215 C116.367262,131.632552 115.507248,130.804941 114.953728,129.761183 C114.396396,128.721618 114.094858,127.518895 114.05483,126.172455 C114.02014,124.813053 114.137935,123.391895 114.424225,121.896401 C114.74978,120.267864 115.226294,118.723956 115.836615,117.311566 C116.468664,115.899176 117.26959,114.653375 118.249686,113.596275 C119.232069,112.539555 120.385997,111.697839 121.705372,111.087138 C123.030083,110.463857 124.556074,110.156981 126.302406,110.16225 Z M149.697364,110.162183 C149.989381,110.162183 150.185909,110.190315 150.286154,110.243409 C150.382437,110.321862 150.401852,110.504917 150.323003,110.825067 L149.624458,114.069754 C149.552741,114.352659 149.445761,114.5583 149.328874,114.658544 C149.205648,114.74928 149.056272,114.808714 148.873216,114.82694 C148.700065,114.840412 148.503538,114.82694 148.30701,114.78177 C148.102558,114.740167 147.902464,114.722337 147.69722,114.722337 C144.910569,114.722337 143.214726,116.11269 142.637426,118.920737 L139.727153,132.334539 C139.607097,132.913028 139.26674,133.19514 138.705289,133.19514 L135.455847,133.191574 C134.838133,133.191574 134.594454,132.908669 134.712133,132.325426 L138.062612,116.700292 C138.276177,115.77471 138.281724,115.118958 138.109763,114.73462 C137.926707,114.343942 137.684217,114.147414 137.387444,114.147414 L137.299879,114.147414 C136.71822,114.142659 136.485636,113.859755 136.609258,113.272549 L136.932578,111.525989 C137.065314,110.951859 137.420331,110.66103 137.999612,110.66103 L138.263498,110.66103 C140.082171,110.664596 141.080658,110.877765 141.792674,111.311235 C142.499144,111.74946 142.913595,112.218987 142.913595,113.021739 L143.006708,113.021739 C143.948931,112.00978 144.918494,111.284292 145.918169,110.83735 C146.91309,110.390408 148.175463,110.162183 149.697364,110.162183 Z M358.643408,101.016528 L354.397807,121.136795 L363.187765,112.400626 C363.637436,111.950032 364.13936,111.745329 364.69876,111.745329 L364.69876,111.745329 L368.174109,111.745329 C368.824181,111.745329 368.87213,111.964171 368.339778,112.400626 L368.339778,112.400626 L358.0127,122.095152 L364.678474,132.531036 C364.965243,132.979785 364.80941,133.191558 364.218659,133.191558 L364.218659,133.191558 L360.123666,133.186333 C359.539985,133.186333 359.123508,132.960729 358.897904,132.531036 L358.897904,132.531036 L353.801831,123.818534 L352.042795,132.35338 C351.933681,132.91278 351.605418,133.179264 351.078291,133.179264 L351.078291,133.179264 L347.953027,133.179264 C347.358588,133.179264 347.134828,132.900486 347.248859,132.35338 L347.248859,132.35338 L353.303289,103.839654 L358.643408,101.016528 Z M232.900041,110.24603 C234.026812,110.24603 235.066559,110.428521 236.011488,110.790906 C236.94083,111.151993 237.730544,111.685829 238.328674,112.389168 C238.95473,113.081466 239.376214,113.937422 239.615856,114.953789 C239.847705,115.969507 239.836664,117.140439 239.585982,118.443857 L238.006554,126.096807 C237.805879,127.131359 237.774706,127.873014 237.926024,128.313332 C238.078642,128.760143 238.286461,128.981601 238.57546,128.981601 L238.66768,128.981601 C239.223597,128.981601 239.444405,129.255663 239.326857,129.818724 L238.960575,131.66377 C238.844326,132.211894 238.50597,132.488554 237.975381,132.488554 L237.730544,132.488554 C233.618317,132.488554 231.994078,130.45582 232.844839,126.389054 L234.192418,119.864822 C234.350881,119.056924 234.45544,118.278251 234.461285,117.545687 C234.492458,116.809227 234.408031,116.159142 234.232683,115.601277 C234.050841,115.040164 233.746905,114.592703 233.316329,114.263439 C232.887052,113.926382 232.294118,113.754931 231.558307,113.754931 C228.601426,113.754931 226.671953,115.934437 225.797812,120.281111 L223.428671,131.642989 C223.310473,132.200854 222.981209,132.475565 222.438281,132.475565 L219.050824,132.475565 C218.452694,132.475565 218.205909,132.195658 218.329301,131.642989 L221.499197,116.717007 C221.699873,115.829878 221.71481,115.192782 221.536215,114.813511 C221.371908,114.434241 221.138111,114.255646 220.858853,114.255646 L220.766634,114.255646 C220.197728,114.255646 219.969127,113.973791 220.096416,113.405535 L220.466594,111.58062 C220.58609,111.017559 220.930291,110.735704 221.499197,110.735704 L221.753126,110.735704 C222.625968,110.735704 223.263064,110.822729 223.844309,110.962357 C224.426204,111.129912 224.889901,111.354617 225.241895,111.641667 C225.595188,111.930666 225.828985,112.304092 225.967315,112.73142 C226.090708,113.160697 226.147858,113.642579 226.140065,114.171219 L226.234233,114.171219 C227.226571,112.841824 228.21696,111.855332 229.201505,111.207195 C230.186699,110.55711 231.418029,110.24603 232.900041,110.24603 Z M254.342529,103.313176 L252.965337,110.140391 L255.807173,110.140391 C256.388624,110.146399 256.618935,110.430115 256.496102,111.003556 L256.496102,111.003556 L256.1236,112.675813 C256.004105,113.260602 255.652297,113.538978 255.065505,113.538978 L255.065505,113.538978 L252.227007,113.538978 L249.623493,125.91101 C249.415212,126.974445 249.477963,127.736807 249.823763,128.189418 C250.164891,128.654713 250.660226,128.876345 251.165575,128.876345 L251.165575,128.876345 L251.893891,128.876345 C252.47334,128.876345 252.707656,129.173413 252.588829,129.731499 L252.588829,129.731499 L252.194964,131.626056 C252.077472,132.204838 251.744356,132.488554 251.195615,132.488554 L251.195615,132.488554 L249.358469,132.488554 C247.377128,132.488554 245.984582,131.934473 245.186171,130.838327 C244.381752,129.726159 244.216863,128.039883 244.682825,125.780166 L244.682825,125.780166 L247.288341,113.533637 L245.011936,113.533637 C244.431152,113.533637 244.196168,113.249253 244.323006,112.675813 L244.323006,112.675813 L244.690168,111.003556 C244.815003,110.430115 245.172819,110.140391 245.757609,110.140391 L245.757609,110.140391 L248.022666,110.140391 L248.817071,106.28986 L254.342529,103.313176 Z M337.150702,110.24603 C338.277473,110.24603 339.31722,110.428521 340.262149,110.790906 C341.191491,111.151993 341.981205,111.685829 342.579336,112.389168 C343.205392,113.081466 343.626875,113.937422 343.866517,114.953789 C344.098366,115.969507 344.087325,117.140439 343.836643,118.443857 L342.257216,126.096807 C342.05654,127.131359 342.025367,127.873014 342.176685,128.313332 C342.329303,128.760143 342.537122,128.981601 342.826121,128.981601 L342.918341,128.981601 C343.474258,128.981601 343.695066,129.255663 343.577518,129.818724 L343.211237,131.66377 C343.094988,132.211894 342.756632,132.488554 342.226043,132.488554 L341.981205,132.488554 C337.868978,132.488554 336.24474,130.45582 337.0955,126.389054 L338.44308,119.864822 C338.601542,119.056924 338.706101,118.278251 338.711946,117.545687 C338.743119,116.809227 338.658692,116.159142 338.483345,115.601277 C338.301503,115.040164 337.997567,114.592703 337.566991,114.263439 C337.137714,113.926382 336.544779,113.754931 335.808968,113.754931 C332.852087,113.754931 330.922614,115.934437 330.048473,120.281111 L327.679332,131.642989 C327.561135,132.200854 327.231871,132.475565 326.688942,132.475565 L323.301486,132.475565 C322.703355,132.475565 322.45657,132.195658 322.579963,131.642989 L325.749858,116.717007 C325.950534,115.829878 325.965471,115.192782 325.786876,114.813511 C325.622569,114.434241 325.388772,114.255646 325.109515,114.255646 L325.017295,114.255646 C324.448389,114.255646 324.219788,113.973791 324.347077,113.405535 L324.717256,111.58062 C324.836752,111.017559 325.180953,110.735704 325.749858,110.735704 L326.003788,110.735704 C326.876629,110.735704 327.513726,110.822729 328.094971,110.962357 C328.676865,111.129912 329.140562,111.354617 329.492556,111.641667 C329.845849,111.930666 330.079646,112.304092 330.217976,112.73142 C330.341369,113.160697 330.398519,113.642579 330.390726,114.171219 L330.484894,114.171219 C331.477232,112.841824 332.467621,111.855332 333.452166,111.207195 C334.43736,110.55711 335.66869,110.24603 337.150702,110.24603 Z M308.593448,113.712718 C307.816722,113.712718 307.10559,113.828967 306.443166,114.049775 C305.789834,114.275778 305.19495,114.681026 304.681247,115.273961 C304.156503,115.862999 303.67657,116.670897 303.236252,117.66908 C302.80178,118.684798 302.429653,119.99406 302.096493,121.599465 C301.760085,123.221106 301.588634,124.56284 301.583438,125.603236 C301.583438,126.643632 301.712027,127.469715 302.012066,128.069793 C302.293921,128.669872 302.717353,129.092005 303.27327,129.325802 C303.831135,129.538817 304.5046,129.657046 305.268986,129.657046 C307.173781,129.66221 308.772042,129.030958 310.044287,127.788588 C311.328871,126.532579 312.260811,124.47127 312.842056,121.599465 C313.418106,118.793903 313.326535,116.781301 312.580983,115.555167 C311.827637,114.325785 310.485903,113.712718 308.593448,113.712718 Z M205.814675,113.712718 C205.03795,113.712718 204.326818,113.828967 203.664393,114.049775 C203.011061,114.275778 202.416178,114.681026 201.902474,115.273961 C201.37773,115.862999 200.897797,116.670897 200.45748,117.66908 C200.023007,118.684798 199.650881,119.99406 199.31772,121.599465 C198.981312,123.221106 198.809861,124.56284 198.804666,125.603236 C198.804666,126.643632 198.933254,127.469715 199.233293,128.069793 C199.515148,128.669872 199.938581,129.092005 200.494498,129.325802 C201.052363,129.538817 201.725828,129.657046 202.490214,129.657046 C204.395008,129.66221 205.99327,129.030958 207.265514,127.788588 C208.550098,126.532579 209.482038,124.47127 210.063283,121.599465 C210.639333,118.793903 210.547763,116.781301 209.80221,115.555167 C209.048865,114.325785 207.707131,113.712718 205.814675,113.712718 Z M282.587321,118.803031 L278.784808,118.803031 L276.508446,129.467193 L280.37022,129.467193 C281.592572,129.467193 282.614021,129.312201 283.462569,129.003845 C284.311443,128.694838 285.012163,128.290426 285.563101,127.807868 C286.10948,127.318471 286.542546,126.759067 286.843412,126.118586 C287.151768,125.488198 287.370255,124.833064 287.510594,124.150904 C287.626838,123.501957 287.673075,122.859522 287.615116,122.229135 C287.552273,121.593212 287.346485,121.015248 286.979193,120.499477 C286.610925,119.98631 286.072686,119.574735 285.371966,119.266379 C284.671572,118.951511 283.74683,118.803031 282.587321,118.803031 Z M125.846095,113.714069 C125.074903,113.714069 124.373474,113.877228 123.745618,114.224131 C123.139491,114.556929 122.595883,115.005615 122.134235,115.565234 C121.661151,116.131334 121.26126,116.780919 120.928462,117.535337 C120.586896,118.276413 120.305943,119.071621 120.082171,119.912574 L126.692386,119.926679 C127.354932,119.926679 127.819629,119.843194 128.079997,119.688803 C128.359806,119.539749 128.542407,119.145195 128.672019,118.491416 C128.789813,117.873472 128.815736,117.276875 128.754361,116.69324 C128.672019,116.111129 128.533639,115.606405 128.289663,115.171823 C128.065892,114.731905 127.741481,114.373184 127.327866,114.105192 C126.907389,113.845968 126.4202,113.714069 125.846095,113.714069 Z M283.456057,105.02275 L281.636855,105.02275 L279.560094,115.076061 L282.209935,115.076061 C282.858882,115.076061 283.508481,114.959492 284.143427,114.722445 C284.774791,114.478561 285.365779,114.138295 285.890668,113.680483 C286.426302,113.225275 286.895185,112.671407 287.291782,112.021808 C287.687077,111.373838 287.961243,110.633393 288.149447,109.804707 C288.44836,108.365822 288.238991,107.195242 287.51906,106.328785 C286.787081,105.460049 285.436763,105.02275 283.456057,105.02275 Z"></path><path fill="#002C5C" d="M290.748056,35.5074321 C293.448056,35.5074321 295.884232,35.8839706 298.081732,36.6582353 C300.267762,37.4011765 302.072173,38.6091176 303.457909,40.1823529 C304.885997,41.7657353 305.849085,43.7501471 306.378056,46.1338235 C306.887173,48.5011765 306.815703,51.2964706 306.168056,54.4654412 C305.825262,56.1860294 305.396438,57.5730882 304.85335,58.7086765 C304.294379,59.8239706 303.582762,60.7019118 302.669968,61.3848529 C301.78585,62.0739706 300.663938,62.5389706 299.34835,62.8252941 C298.064085,63.1177941 296.49835,63.2730882 294.638791,63.2730882 L276.273938,63.2505882 C276.035262,65.1326471 275.991585,66.8611765 276.167615,68.4127941 C276.312762,69.9613235 276.696585,71.3179412 277.35085,72.4623529 C277.998497,73.6054412 278.946585,74.5045588 280.209673,75.1575 C281.462615,75.8051471 283.05085,76.1338235 285.015409,76.1338235 C286.776585,76.1338235 288.549673,75.9101471 290.360703,75.4861765 C292.184085,75.0472059 294.052468,74.5244118 296.00335,73.9394118 C296.986291,73.6530882 297.577468,73.5692647 297.828938,73.6804412 C298.023938,73.7991176 298.205262,73.9394118 298.314232,74.1269118 L299.618791,76.9544118 C300.037468,77.7710294 299.863644,78.5452941 299.088497,79.2480882 C298.574526,79.7082353 297.785262,80.2023529 296.70085,80.7247059 C295.585556,81.255 294.27482,81.7504412 292.806585,82.1342647 C291.321144,82.5507353 289.685262,82.8922059 287.911732,83.1573529 C286.12982,83.4211765 284.276438,83.5398529 282.374526,83.5398529 C278.243791,83.5261765 274.956144,82.8922059 272.496144,81.5964706 C270.029968,80.2870588 268.216732,78.5638235 267.06085,76.3914706 C265.904085,74.2107353 265.270115,71.7017647 265.187615,68.8870588 C265.109968,66.0582353 265.367615,63.0904412 265.959232,59.9704412 C266.643497,56.5685294 267.640115,53.3708824 268.92085,50.4119118 C270.223644,47.4705882 271.889526,44.8632353 273.929085,42.6560294 C275.991585,40.4611765 278.391144,38.6977941 281.150262,37.4298529 C283.916438,36.1327941 287.105262,35.4939706 290.748056,35.5074321 Z M331.63982,35.5116176 C335.444085,35.5116176 338.684085,35.9916176 341.304232,36.9322059 C343.915556,37.8661765 345.608791,38.8416176 346.375115,39.8448529 C346.487615,40.0186765 346.585556,40.2913235 346.647762,40.6336765 C346.731585,40.9888235 346.466438,41.4829412 345.881438,42.1297059 L343.391438,44.9519118 C343.10732,45.3710294 342.753497,45.5311765 342.328203,45.4323529 C341.88085,45.3573529 341.449379,45.2448529 341.046585,45.1257353 C339.53335,44.5332353 337.972468,44.0192647 336.39085,43.5802941 C334.831291,43.1413235 333.081585,42.9097059 331.173056,42.9097059 C328.496879,42.9097059 326.462173,43.4386765 325.081732,44.4992647 C323.68982,45.5585294 322.798203,46.9319118 322.409085,48.6511765 C322.226438,49.6402941 322.316438,50.5257353 322.706879,51.2788235 C323.119379,52.0442647 323.913497,52.6094118 325.081732,52.9570588 L334.908497,55.9610294 C338.538938,57.0891176 340.851585,58.7258824 341.88085,60.9083824 C342.91982,63.0741176 343.067615,65.8619118 342.38335,69.2682353 C341.854379,71.7083824 340.920409,73.7691176 339.53335,75.525 C338.141438,77.2945588 336.448203,78.7777941 334.502173,79.9844118 C332.538938,81.1813235 330.380262,82.0791176 328.030556,82.6720588 C325.654379,83.2522059 323.272026,83.5376471 320.827026,83.5376471 C318.903938,83.5376471 317.091585,83.4247059 315.427026,83.1825 C313.739968,82.9460294 312.202026,82.6394118 310.833938,82.2480882 C309.442026,81.8730882 308.307762,81.4177941 307.423644,80.8751471 C306.543056,80.3598529 305.931585,79.7942647 305.609968,79.2194118 C305.183791,78.45 305.288791,77.6836765 305.936438,76.9120588 L308.440115,74.0969118 C308.765262,73.8167647 309.134085,73.6702941 309.580556,73.7002941 C310.033644,73.7280882 310.417468,73.8167647 310.771291,73.9292647 C312.403203,74.5133824 314.110115,75.0370588 315.865997,75.4760294 C317.634673,75.9141176 319.612909,76.1316176 321.822762,76.1377941 C323.668644,76.1377941 325.222909,75.9639706 326.462173,75.6163235 C327.695262,75.2673529 328.712173,74.8058824 329.451144,74.2495588 C330.197615,73.6839706 330.754379,73.0636765 331.130703,72.3410294 C331.50085,71.6580882 331.77835,70.9402941 331.941144,70.2436765 C332.218644,68.8919118 331.897468,67.8401471 331.014232,67.1161765 C330.147762,66.3697059 328.510556,65.5892647 326.120703,64.7598529 L318.842615,62.4675 C315.74732,61.4797059 313.676438,59.8341176 312.673203,57.5430882 C311.650556,55.2370588 311.456438,52.6367647 312.039232,49.6905882 C312.467173,47.6832353 313.217615,45.8364706 314.283056,44.0880882 C315.344526,42.3533824 316.701585,40.8564706 318.35335,39.5585294 C320.025409,38.2764706 321.970115,37.26 324.19232,36.5708824 C326.414968,35.8592647 328.900997,35.5116176 331.63982,35.5116176 Z M222.899526,36.1177941 C231.530703,36.1177941 234.946291,40.41 233.155556,48.9591176 L230.312615,62.6841176 C229.976438,64.3923529 229.78982,66.0154412 229.741291,67.5626471 C229.698938,69.1297059 229.880262,70.4814706 230.255262,71.6519118 C230.617909,72.8351471 231.253203,73.7766176 232.164673,74.4732353 C233.064232,75.1835294 234.29732,75.5386765 235.851585,75.5386765 C242.102173,75.5386765 246.142468,70.9605882 247.967173,61.8123529 L252.970556,37.8952941 C253.235703,36.7244118 253.91732,36.1327941 255.046732,36.1327941 L261.652468,36.1394118 C262.897909,36.1394118 263.392909,36.7305882 263.149379,37.9014706 L256.585115,69.3110294 C256.153644,71.1780882 256.13335,72.5236765 256.495997,73.3089706 C256.878938,74.0969118 257.339085,74.4930882 257.958056,74.4930882 L258.110703,74.4930882 C259.29482,74.4930882 259.777468,75.0860294 259.526438,76.2639706 L258.72482,79.9910294 C258.493203,81.1702941 257.755556,81.7464706 256.563497,81.7464706 L256.042026,81.7464706 C254.188644,81.7464706 252.781732,81.5589706 251.570262,81.2801471 C250.893497,81.1261765 249.751732,80.5425 249.152615,80.0483824 C248.468791,79.4554412 247.926144,78.6039706 247.654379,77.6911765 C247.383056,76.7929412 247.250703,75.7764706 247.264379,74.6620588 L247.081732,74.6620588 C244.991879,77.4772059 242.902468,79.5454412 240.824968,80.8976471 C238.764232,82.2644118 236.155556,82.9257353 233.050115,82.9257353 C230.666879,82.9257353 228.506879,82.5480882 226.50835,81.7680882 C224.548644,81.0163235 222.899526,79.9019118 221.623644,78.4252941 C220.300556,76.9667647 219.408938,75.1636765 218.906438,73.0111765 C218.418497,70.8714706 218.467468,68.4119118 218.981438,65.6739706 L222.326438,49.5719118 C222.744232,47.4057353 222.801585,45.8364706 222.475556,44.9060294 C222.155262,43.9702941 221.684968,43.5026471 221.094673,43.5026471 L220.900997,43.5026471 C219.741585,43.5026471 219.246585,42.9185294 219.506438,41.7405882 L220.284232,37.8688235 C220.544526,36.7019118 221.24732,36.1177941 222.375409,36.1177941 L222.899526,36.1177941 Z M371.707026,22.9429412 L368.927173,36.7597059 L374.669526,36.7597059 C375.847468,36.7658824 376.319085,37.3447059 376.055262,38.5014706 L376.055262,38.5014706 L375.302615,41.9020588 C375.078497,43.0575 374.342173,43.6376471 373.162468,43.6376471 L373.162468,43.6376471 L367.45232,43.6376471 L362.148938,68.6691176 C361.716144,70.8154412 361.85732,72.3560294 362.558791,73.2816176 C363.277026,74.2155882 364.293497,74.6682353 365.292762,74.6682353 L365.292762,74.6682353 L366.760997,74.6757353 C367.946438,74.6757353 368.419379,75.2611765 368.154232,76.3967647 L368.154232,76.3967647 L367.390115,80.2270588 C367.15232,81.4063235 366.463203,81.9692647 365.347909,81.9692647 L365.347909,81.9692647 L361.626144,81.9692647 C357.606585,81.9692647 354.813056,80.8548529 353.20232,78.6264706 C351.551438,76.3830882 351.231144,72.9825 352.166879,68.3977941 L352.166879,68.3977941 L357.438938,43.6151471 L352.848056,43.6151471 C351.670115,43.6151471 351.196291,43.0513235 351.461438,41.8870588 L351.461438,41.8870588 L352.194232,38.4864706 C352.444379,37.3310294 353.174526,36.7522059 354.352909,36.7522059 L354.352909,36.7522059 L358.929673,36.7522059 L360.525409,28.9548529 L371.707026,22.9429412 Z M45.9709969,18.5311765 C47.1480558,18.5311765 47.6082028,19.1236765 47.3629087,20.3007353 L46.4514381,24.6966176 C46.2012911,25.8683824 45.4834969,26.4586765 44.3117322,26.4586765 L22.5330558,26.4586765 L18.4009969,45.9198529 L35.8940852,45.9198529 C37.0521734,45.9198529 37.5198205,46.5101471 37.2608499,47.6894118 L36.3643793,52.0852941 C36.1027617,53.2632353 35.3937911,53.8561765 34.2105558,53.8561765 L16.7302617,53.8561765 L11.0924675,80.1922059 C10.8423205,81.36 10.1496734,81.9617647 9.04408518,81.9617647 L1.54673224,81.9617647 C0.312761655,81.9617647 -0.187532462,81.36 0.0626145966,80.1922059 L12.7433499,20.3007353 C12.9957028,19.1236765 13.7214381,18.5311765 14.8967322,18.5311765 L45.9709969,18.5311765 Z M110.497468,18.5223529 C111.800262,18.5223529 112.65085,18.9886765 113.061144,19.9292647 L129.610115,60.6895588 L129.638791,60.6895588 L138.263791,20.2844118 C138.521438,19.1077941 139.231732,18.5223529 140.401291,18.5223529 L148.011144,18.5223529 C149.202762,18.5223529 149.654085,19.1077941 149.403938,20.2844118 L136.66585,80.1895588 C136.415703,81.3666176 135.720409,81.9604412 134.61835,81.9604412 L128.096879,81.9604412 C126.73232,81.9604412 125.868056,81.4791176 125.456879,80.5508824 L108.860262,39.6970588 L100.282468,80.1895588 C100.01732,81.3666176 99.3432028,81.9604412 98.2292322,81.9604412 L91.5259969,81.9604412 C90.3079087,81.9604412 89.7912911,81.3666176 90.0630558,80.1895588 L102.798938,20.2844118 C103.049968,19.1077941 103.761585,18.5223529 104.931144,18.5223529 L110.497468,18.5223529 Z M69.9948205,18.525 C76.8582028,18.525 81.9855558,19.9667647 85.3733499,22.8529412 C88.7584969,25.7294118 89.9090852,29.8676471 88.7871734,35.2663235 C88.1033499,38.4379412 86.8226146,41.1066176 84.9529087,43.2798529 C83.0734969,45.4548529 80.6624675,47.1882353 77.6933499,48.4773529 L77.6748205,48.6586765 C81.8051146,49.3067647 84.6829087,51.0075 86.3262911,53.8085294 C87.9493793,56.595 88.3609969,59.9664706 87.5042322,63.8885294 C86.9876146,66.4733824 85.9923205,68.8570588 84.5240852,71.0302941 C83.0509969,73.1991176 81.261144,75.0922059 79.1302617,76.7580882 C76.9980558,78.4027941 74.6007028,79.6707353 71.9532028,80.5835294 C69.3193793,81.4954412 66.5532028,81.9555882 63.6820264,81.9555882 L43.5612911,81.9555882 C42.3220264,81.9555882 41.8407028,81.3577941 42.0908499,80.1873529 L54.8090852,20.2945588 C55.0579087,19.1175 55.7668793,18.525 56.9514381,18.525 L69.9948205,18.525 Z M66.6233499,53.3210294 L59.0571734,53.3210294 L54.5126146,74.5495588 L62.226144,74.5495588 C64.6309969,74.5495588 66.6705558,74.2429412 68.3567322,73.6292647 C70.0512911,73.0177941 71.4304087,72.2148529 72.5258499,71.2469118 C73.6252617,70.2723529 74.4820264,69.1694118 75.0807028,67.8952941 C75.7084969,66.6423529 76.1426146,65.3329412 76.4104087,63.9798529 C76.6715852,62.6916176 76.7404087,61.4095588 76.6292322,60.1552941 C76.4889381,58.8860294 76.0790852,57.7354412 75.3449675,56.7123529 C74.6232028,55.6883824 73.5551146,54.8664706 72.1609969,54.2461765 C70.7615852,53.6338235 68.9157028,53.3210294 66.6233499,53.3210294 Z M289.787615,42.9013235 C288.193203,42.9013235 286.707762,43.2564706 285.412026,43.9641176 C284.144085,44.6695588 283.00232,45.6022059 282.046732,46.7730882 C281.072615,47.9510294 280.237026,49.3089706 279.525409,50.8773529 C278.813791,52.4179412 278.234968,54.0688235 277.768644,55.8432353 L291.55232,55.8657353 C292.938056,55.8657353 293.919673,55.6919118 294.456144,55.3782353 C295.040262,55.0641176 295.410409,54.2338235 295.687909,52.8758824 C295.933203,51.5739706 295.989232,50.3347059 295.864379,49.1214706 C295.687909,47.9086765 295.391879,46.8569118 294.903938,45.9511765 C294.428791,45.0308824 293.739673,44.2866176 292.875409,43.7364706 C292.012468,43.1925 290.99335,42.9013235 289.787615,42.9013235 Z M68.3501146,25.9319118 L64.7359969,25.9319118 L60.6105558,45.9198529 L65.8918793,45.9198529 C67.1721734,45.9198529 68.4555558,45.6838235 69.7173205,45.2236765 C70.9839381,44.7507353 72.1482028,44.0541176 73.2074675,43.155 C74.2592322,42.2347059 75.193644,41.1401471 75.973644,39.8448529 C76.7668793,38.5552941 77.3333499,37.0945588 77.6659969,35.4401471 C78.2801146,32.5711765 77.8623205,30.2651471 76.4201146,28.5295588 C74.9708499,26.8023529 72.2809969,25.9319118 68.3501146,25.9319118 Z"></path></g></svg>